{"title":"God Killer 2010 DVDRip Xvid LKRG","uid":5841996,"size":851984874,"categoryP":"video","categoryS":"movies","magnet":"?xt=urn:btih:bd2cbb9b36a125473ed7babec0c6f3b99177b361&amp;dn=God+Killer+2010+DVDRip+Xvid+LKRG&amp;tr=udp%3A%2F%2Ftracker.openbittorrent.com%3A80&amp;tr=udp%3A%2F%2Fopen.demonii.com%3A1337&amp;tr=udp%3A%2F%2Ftracker.coppersurfer.tk%3A6969&amp;tr=udp%3A%2F%2Fexodus.desync.com%3A6969","seeders":0,"leechers":0,"uploader":"neon","files":-1,"time":1285004235,"description":"\nAbout a 16-year-old boy's odyssey through a post-nuke wasteland as he searches for a new heart to save his dying sister.\n\nCast: Lance Henriksen ... Mulciber (voice)\n\nDanielle Harris ... Halfpipe\nJustin Courtney Pierre ... Tommy (voice)\n\nNicki Clyne ... Soledad (voice)\nDavey Havok ... Dragos (voice)\n\nTiffany Shepis ... Angelfuck (voice)\n\nBill Moseley ... Dr. West (voice)\n  &lt;a href=&quot;\nhttp://img412.imageshack.us/img412/1810/vlcsnap2010091921h27m31.png&quot; rel=&quot;nofollow&quot; target=&quot;_NEW&quot;&gt;\nhttp://img412.imageshack.us/img412/1810/vlcsnap2010091921h27m31.png&lt;/a&gt;  &lt;a href=&quot;\nhttp://img148.imageshack.us/img148/7897/vlcsnap2010091921h28m23.png&quot; rel=&quot;nofollow&quot; target=&quot;_NEW&quot;&gt;\nhttp://img148.imageshack.us/img148/7897/vlcsnap2010091921h28m23.png&lt;/a&gt;  &lt;a href=&quot;\nhttp://img828.imageshack.us/img828/624/vlcsnap2010091921h29m29.png&quot; rel=&quot;nofollow&quot; target=&quot;_NEW&quot;&gt;\nhttp://img828.imageshack.us/img828/624/vlcsnap2010091921h29m29.png&lt;/a&gt;  &lt;a href=&quot;\nhttp://img85.imageshack.us/img85/1736/vlcsnap2010091921h30m01.png&quot; rel=&quot;nofollow&quot; target=&quot;_NEW&quot;&gt;\nhttp://img85.imageshack.us/img85/1736/vlcsnap2010091921h30m01.png&lt;/a&gt;  &lt;a href=&quot;\nhttp://img291.imageshack.us/img291/6160/vlcsnap2010091921h30m26.png&quot; rel=&quot;nofollow&quot; target=&quot;_NEW&quot;&gt;\nhttp://img291.imageshack.us/img291/6160/vlcsnap2010091921h30m26.png&lt;/a&gt;  &lt;a href=&quot;\nhttp://img808.imageshack.us/img808/8807/vlcsnap2010091921h36m17.png&quot; rel=&quot;nofollow&quot; target=&quot;_NEW&quot;&gt;\nhttp://img808.imageshack.us/img808/8807/vlcsnap2010091921h36m17.png&lt;/a&gt;  &lt;a href=&quot;\nhttp://img826.imageshack.us/img826/9355/vlcsnap2010091921h36m36.png&quot; rel=&quot;nofollow&quot; target=&quot;_NEW&quot;&gt;\nhttp://img826.imageshack.us/img826/9355/vlcsnap2010091921h36m36.png&lt;/a&gt;  &lt;a href=&quot;\nhttp://img693.imageshack.us/img693/4981/vlcsnap2010091921h36m55.png&quot; rel=&quot;nofollow&quot; target=&quot;_NEW&quot;&gt;\nhttp://img693.imageshack.us/img693/4981/vlcsnap2010091921h36m55.png&lt;/a&gt;\n  &lt;a href=&quot;\nhttp://www.imdb.com/title/tt1384961/&quot; rel=&quot;nofollow&quot; target=&quot;_NEW&quot;&gt;\nhttp://www.imdb.com/title/tt1384961/&lt;/a&gt;\n\nEncoded By Xclusive666..:)\n\n\nFormat;Avi\n\nFile Size:812mb\n\nVideo: ID : 0\nFormat : MPEG-4 Visual\nFormat profile : Advanced Simple@L5\nFormat settings, BVOP : Yes\nFormat settings, QPel : No\nFormat settings, GMC : No warppoints\nFormat settings, Matrix : Default (H.263)\nMuxing mode : Packed bitstream\nCodec ID : XVID\nCodec ID/Hint : XviD\nDuration : 1h 12mn\nBit rate : 1 105 Kbps\nWidth : 680 pixels\nHeight : 380 pixels\nDisplay aspect ratio : 16:9\nFrame rate : 29.970 fps\nResolution : 8 bits\nColorimetry : 4:2:0\nScan type : Progressive\nBits/(Pixel*Frame) : 0.143\nStream size : 574 MiB (71%)\nWriting library : XviD 1.2.1 (UTC 2008-12-04)\n\nAudio: ID : 1\nFormat : AC-3\nFormat/Info : Audio Coding 3\nCodec ID : 2000\nDuration : 1h 12mn\nBit rate mode : Constant\nBit rate : 448 Kbps\nChannel(s) : 6 channels\nChannel positions : Front: L C R, Surround: L R, LFE\nSampling rate : 48.0 KHz\nStream size : 233 MiB (29%)\nAlignment : Aligned on interleaves\nInterleave, duration : 33 ms (1.00 video frame)\nInterleave, preload duration : 512 ms\n\nDuration:1:12\n\nRelease Date:2010\n\nLanguage:English","torrent":{"xt":"urn:btih:bd2cbb9b36a125473ed7babec0c6f3b99177b361","amp;dn":"God+Killer+2010+DVDRip+Xvid+LKRG","amp;tr":["udp%3A%2F%2Ftracker.openbittorrent.com%3A80","udp%3A%2F%2Fopen.demonii.com%3A1337","udp%3A%2F%2Ftracker.coppersurfer.tk%3A6969","udp%3A%2F%2Fexodus.desync.com%3A6969"],"infoHash":"bd2cbb9b36a125473ed7babec0c6f3b99177b361","infoHashBuffer":{"type":"Buffer","data":[189,44,187,155,54,161,37,71,62,215,186,190,192,198,243,185,145,119,179,97]},"announce":[],"urlList":[]}}